<svg width="250" height="250" viewBox="0 0 250 250" fill="none" xmlns="http://www.w3.org/2000/svg">
<rect width="250" height="250" fill="#F6F6F6"/>
<path d="M66.3355 57.448V64.024H50.7835V71.272H65.5675V77.848H50.7835V91H43.2955V57.448H66.3355ZM78.4461 57.448H85.9341V91H78.4461V57.448ZM99.9561 91V57.448H107.444V84.328H121.748V91H99.9561ZM163.045 69.88L153.973 88.216H149.509L140.485 69.88V91H132.997V57.448H143.125L151.765 75.88L160.453 57.448H170.533V91H163.045V69.88ZM208.746 57.448V64.12H192.042V71.032H207.066V77.416H192.042V84.376H209.274V91H184.554V57.448H208.746ZM52.5391 109.8C54.7231 109.8 56.6191 110.16 58.2271 110.88C59.8591 111.6 61.1071 112.632 61.9711 113.976C62.8351 115.32 63.2671 116.916 63.2671 118.764C63.2671 120.588 62.8351 122.184 61.9711 123.552C61.1071 124.896 59.8591 125.928 58.2271 126.648C56.6191 127.368 54.7231 127.728 52.5391 127.728H46.8511V135H42.1711V109.8H52.5391ZM52.3231 123.768C54.3631 123.768 55.9111 123.336 56.9671 122.472C58.0231 121.608 58.5511 120.372 58.5511 118.764C58.5511 117.156 58.0231 115.92 56.9671 115.056C55.9111 114.192 54.3631 113.76 52.3231 113.76H46.8511V123.768H52.3231ZM90.4406 131.076V135H71.5406V109.8H89.9366V113.724H76.2206V120.276H88.3886V124.128H76.2206V131.076H90.4406ZM121.65 109.8V135H117.798L103.902 117.936V135H99.2578V109.8H103.11L117.006 126.864V109.8H121.65ZM137.114 113.76H128.762V109.8H150.146V113.76H141.794V135H137.114V113.76ZM173.747 135L168.599 127.62C168.383 127.644 168.059 127.656 167.627 127.656H161.939V135H157.259V109.8H167.627C169.811 109.8 171.707 110.16 173.315 110.88C174.947 111.6 176.195 112.632 177.059 113.976C177.923 115.32 178.355 116.916 178.355 118.764C178.355 120.66 177.887 122.292 176.951 123.66C176.039 125.028 174.719 126.048 172.991 126.72L178.787 135H173.747ZM173.639 118.764C173.639 117.156 173.111 115.92 172.055 115.056C170.999 114.192 169.451 113.76 167.411 113.76H161.939V123.804H167.411C169.451 123.804 170.999 123.372 172.055 122.508C173.111 121.62 173.639 120.372 173.639 118.764ZM198.027 135.36C194.547 135.36 191.835 134.388 189.891 132.444C187.947 130.476 186.975 127.668 186.975 124.02V109.8H191.655V123.84C191.655 128.784 193.791 131.256 198.063 131.256C202.311 131.256 204.435 128.784 204.435 123.84V109.8H209.043V124.02C209.043 127.668 208.071 130.476 206.127 132.444C204.207 134.388 201.507 135.36 198.027 135.36ZM66.3355 160.448V167.024H50.7835V174.272H65.5675V180.848H50.7835V194H43.2955V160.448H66.3355ZM78.4461 160.448H85.9341V194H78.4461V160.448ZM99.9561 194V160.448H107.444V187.328H121.748V194H99.9561ZM163.045 172.88L153.973 191.216H149.509L140.485 172.88V194H132.997V160.448H143.125L151.765 178.88L160.453 160.448H170.533V194H163.045V172.88ZM208.746 160.448V167.12H192.042V174.032H207.066V180.416H192.042V187.376H209.274V194H184.554V160.448H208.746Z" fill="#111111"/>
<g clip-path="url(#clip0)">
<rect x="75" y="75" width="100" height="100" rx="50" fill="#111111"/>
<path d="M66.3355 57.448V64.024H50.7835V71.272H65.5675V77.848H50.7835V91H43.2955V57.448H66.3355ZM78.4461 57.448H85.9341V91H78.4461V57.448ZM99.9561 91V57.448H107.444V84.328H121.748V91H99.9561ZM163.045 69.88L153.973 88.216H149.509L140.485 69.88V91H132.997V57.448H143.125L151.765 75.88L160.453 57.448H170.533V91H163.045V69.88ZM208.746 57.448V64.12H192.042V71.032H207.066V77.416H192.042V84.376H209.274V91H184.554V57.448H208.746ZM52.5391 109.8C54.7231 109.8 56.6191 110.16 58.2271 110.88C59.8591 111.6 61.1071 112.632 61.9711 113.976C62.8351 115.32 63.2671 116.916 63.2671 118.764C63.2671 120.588 62.8351 122.184 61.9711 123.552C61.1071 124.896 59.8591 125.928 58.2271 126.648C56.6191 127.368 54.7231 127.728 52.5391 127.728H46.8511V135H42.1711V109.8H52.5391ZM52.3231 123.768C54.3631 123.768 55.9111 123.336 56.9671 122.472C58.0231 121.608 58.5511 120.372 58.5511 118.764C58.5511 117.156 58.0231 115.92 56.9671 115.056C55.9111 114.192 54.3631 113.76 52.3231 113.76H46.8511V123.768H52.3231ZM90.4406 131.076V135H71.5406V109.8H89.9366V113.724H76.2206V120.276H88.3886V124.128H76.2206V131.076H90.4406ZM121.65 109.8V135H117.798L103.902 117.936V135H99.2578V109.8H103.11L117.006 126.864V109.8H121.65ZM137.114 113.76H128.762V109.8H150.146V113.76H141.794V135H137.114V113.76ZM173.747 135L168.599 127.62C168.383 127.644 168.059 127.656 167.627 127.656H161.939V135H157.259V109.8H167.627C169.811 109.8 171.707 110.16 173.315 110.88C174.947 111.6 176.195 112.632 177.059 113.976C177.923 115.32 178.355 116.916 178.355 118.764C178.355 120.66 177.887 122.292 176.951 123.66C176.039 125.028 174.719 126.048 172.991 126.72L178.787 135H173.747ZM173.639 118.764C173.639 117.156 173.111 115.92 172.055 115.056C170.999 114.192 169.451 113.76 167.411 113.76H161.939V123.804H167.411C169.451 123.804 170.999 123.372 172.055 122.508C173.111 121.62 173.639 120.372 173.639 118.764ZM198.027 135.36C194.547 135.36 191.835 134.388 189.891 132.444C187.947 130.476 186.975 127.668 186.975 124.02V109.8H191.655V123.84C191.655 128.784 193.791 131.256 198.063 131.256C202.311 131.256 204.435 128.784 204.435 123.84V109.8H209.043V124.02C209.043 127.668 208.071 130.476 206.127 132.444C204.207 134.388 201.507 135.36 198.027 135.36ZM66.3355 160.448V167.024H50.7835V174.272H65.5675V180.848H50.7835V194H43.2955V160.448H66.3355ZM78.4461 160.448H85.9341V194H78.4461V160.448ZM99.9561 194V160.448H107.444V187.328H121.748V194H99.9561ZM163.045 172.88L153.973 191.216H149.509L140.485 172.88V194H132.997V160.448H143.125L151.765 178.88L160.453 160.448H170.533V194H163.045V172.88ZM208.746 160.448V167.12H192.042V174.032H207.066V180.416H192.042V187.376H209.274V194H184.554V160.448H208.746Z" fill="#F6F6F6"/>
</g>
<defs>
<clipPath id="clip0">
<rect x="75" y="75" width="100" height="100" rx="50" fill="white"/>
</clipPath>
</defs>
</svg>
